<svg xmlns="http://www.w3.org/2000/svg" xmlns:xlink="http://www.w3.org/1999/xlink" version="1.1" x="0px" y="0px" viewBox="0 0 100 125" enable-background="new 0 0 100 100" xml:space="preserve"><g><path fill="#426A64" d="M32.344,59.26c-4.89-7.169-6.042-13.977-3.259-19.171c2.403-4.495,7.473-7.202,14.429-7.778l-0.321-2.388   c-0.082-3.935-0.535-8.75-1.054-9.631c-0.675-0.872-2.18-1.917-2.938-2.403l-3.152-0.437c-0.009,0-0.215-0.016-0.544-0.041   c-0.329-0.016-0.774-0.033-1.268-0.033c-1.481,0-2.206,0.173-2.502,0.279c-0.897,0.305-3.993,2.881-6.347,5.096l-0.189,0.181   l-0.783,0.362l1.705,0.329L27.01,30.4v0.14c-0.025,0.46-0.007,0.699,0,0.864c0.042,0.593-0.032,1.35-0.971,1.926   c-0.116,0.066-0.271,0.157-0.568,0.42c-8.511,7.244-12.297,14.017-11.244,20.118c1.539,8.947,13.014,14.066,14.892,14.85   l11.936,0.115C37.571,65.829,34.616,62.586,32.344,59.26z M32.015,20.216c1.023,0,1.852,0.83,1.852,1.852s-0.829,1.852-1.852,1.852   c-1.022,0-1.852-0.83-1.852-1.852S30.993,20.216,32.015,20.216z"/><path fill="none" d="M66.347,49.934c-4.074-4.832-10.824-12.775-11.539-13.458c-0.05-0.042-0.133-0.091-0.231-0.148   c-2.831-0.551-5.572-0.84-8.165-0.84c-7.178,0-12.298,2.182-14.43,6.158c-2.173,4.057-1.078,9.656,3.087,15.763   c2.766,4.05,6.643,7.969,11.301,11.475l35.84,0.346L66.347,49.934z"/><circle cx="32.015" cy="22.068" r="1.852"/><path d="M68.875,47.826c-2.454-2.914-5.935-7.038-8.52-10.034c-1.77-2.058-3.12-3.581-3.425-3.827   c-0.346-0.28-0.814-0.552-1.276-0.774c-0.813-0.394-1.63-0.674-1.853-0.749l-0.196-0.065l-6.833-0.47l-0.287-2.148   c-0.083-3.597-0.419-9.771-1.712-11.441c-1.317-1.712-3.877-3.251-4.165-3.424l-0.29-0.172l-3.885-0.536   c-0.041,0-1.004-0.099-2.198-0.099c-1.499,0-2.7,0.156-3.581,0.461c-1.876,0.642-5.86,4.255-7.325,5.622l-9.573,4.436l9.407,1.803   l0.544,4.14c0,0.14-0.008,0.271-0.008,0.396c-0.108,0.082-0.231,0.181-0.371,0.296c-9.458,8.059-13.615,15.854-12.347,23.189   c1.983,11.524,16.603,17.229,17.22,17.467l0.28,0.107l14.11,0.138l-9.147,11.233c-0.663,0.813-0.736,1.849-0.163,2.315   c0.571,0.466,1.572,0.184,2.234-0.629L46.01,72.175l5.241,0.05l6.248,0.059l-9.03,11.091c-0.664,0.813-0.736,1.849-0.165,2.315   c0.572,0.466,1.573,0.184,2.234-0.629l10.378-12.743l28.321,0.271L68.875,47.826z M29.118,68.719   c-1.877-0.783-13.353-5.902-14.892-14.85c-1.053-6.101,2.733-12.875,11.244-20.118c0.297-0.264,0.453-0.354,0.568-0.42   c0.938-0.576,1.013-1.333,0.971-1.926c-0.007-0.165-0.025-0.404,0-0.864V30.4l-0.889-6.774l-1.705-0.329l0.783-0.362l0.189-0.181   c2.354-2.215,5.45-4.791,6.347-5.096c0.296-0.106,1.021-0.279,2.502-0.279c0.493,0,0.938,0.017,1.268,0.033   c0.329,0.025,0.535,0.041,0.544,0.041l3.152,0.437c0.758,0.486,2.263,1.531,2.938,2.403c0.519,0.881,0.972,5.696,1.054,9.631   l0.321,2.388c-6.956,0.576-12.026,3.283-14.429,7.778c-2.783,5.194-1.631,12.002,3.259,19.171c2.272,3.326,5.227,6.569,8.709,9.574   L29.118,68.719z M46.37,68.883c-4.659-3.506-8.535-7.425-11.301-11.475c-4.165-6.107-5.26-11.706-3.087-15.763   c2.131-3.976,7.251-6.158,14.43-6.158c2.593,0,5.333,0.289,8.165,0.84c0.099,0.057,0.182,0.107,0.231,0.148   c0.715,0.683,7.465,8.626,11.539,13.458L82.21,69.229L46.37,68.883z"/></g></svg>